<svg width="16" height="16" viewBox="0 0 16 16" fill="none" xmlns="http://www.w3.org/2000/svg">
<path d="M10.8334 14.9998C11.4777 14.9998 12.0001 14.4775 12.0001 13.8332C12.0001 13.1888 11.4777 12.6665 10.8334 12.6665C10.1891 12.6665 9.66675 13.1888 9.66675 13.8332C9.66675 14.4775 10.1891 14.9998 10.8334 14.9998Z" fill="white"/>
<path d="M5.49992 14.9998C6.14425 14.9998 6.66658 14.4775 6.66658 13.8332C6.66658 13.1888 6.14425 12.6665 5.49992 12.6665C4.85559 12.6665 4.33325 13.1888 4.33325 13.8332C4.33325 14.4775 4.85559 14.9998 5.49992 14.9998Z" fill="white"/>
<path d="M3.22659 2.62683L3.09325 4.26016C3.06659 4.5735 3.31325 4.8335 3.62659 4.8335H13.8333C14.1133 4.8335 14.3466 4.62016 14.3666 4.34016C14.4533 3.16016 13.5533 2.20016 12.3733 2.20016H4.17992C4.11325 1.90683 3.97992 1.62683 3.77325 1.3935C3.43992 1.04016 2.97325 0.833496 2.49325 0.833496H1.33325C1.05992 0.833496 0.833252 1.06016 0.833252 1.3335C0.833252 1.60683 1.05992 1.8335 1.33325 1.8335H2.49325C2.69992 1.8335 2.89325 1.92016 3.03325 2.06683C3.17325 2.22016 3.23992 2.42016 3.22659 2.62683Z" fill="white"/>
<path d="M13.6735 5.8335H3.44678C3.16678 5.8335 2.94012 6.04683 2.91345 6.32016L2.67345 9.22016C2.58012 10.3602 3.47345 11.3335 4.61345 11.3335H12.0268C13.0268 11.3335 13.9068 10.5135 13.9801 9.5135L14.2001 6.40016C14.2268 6.0935 13.9868 5.8335 13.6735 5.8335Z" fill="white"/>
</svg>
