<svg width="20" height="20" viewBox="0 0 20 20" fill="none" xmlns="http://www.w3.org/2000/svg">
<path d="M12.5751 17.2253C12.7334 17.2253 12.8917 17.1669 13.0167 17.0419C13.2584 16.8003 13.2584 16.4003 13.0167 16.1586L7.58342 10.7253C7.18341 10.3253 7.18341 9.67526 7.58342 9.27526L13.0167 3.84193C13.2584 3.60026 13.2584 3.20026 13.0167 2.95859C12.7751 2.71693 12.3751 2.71693 12.1334 2.95859L6.70008 8.39193C6.27508 8.81693 6.03341 9.39193 6.03341 10.0003C6.03341 10.6086 6.26675 11.1836 6.70008 11.6086L12.1334 17.0419C12.2584 17.1586 12.4167 17.2253 12.5751 17.2253Z" fill="#0C0D0D"/>
</svg>
