<svg width="20" height="20" viewBox="0 0 20 20" fill="none" xmlns="http://www.w3.org/2000/svg">
<path d="M4.16657 18.2251C3.5499 18.2251 2.94157 17.9917 2.4749 17.5251C2.0249 17.0751 1.7749 16.4751 1.7749 15.8334C1.7749 15.1917 2.0249 14.5917 2.4749 14.1417L13.3082 3.3084C14.2416 2.37507 15.7582 2.37507 16.6916 3.3084C17.1416 3.7584 17.3916 4.3584 17.3916 5.00006C17.3916 5.64173 17.1416 6.24173 16.6916 6.69173L5.85824 17.5251C5.39157 17.9917 4.78324 18.2251 4.16657 18.2251ZM14.9999 3.8584C14.7082 3.8584 14.4166 3.96673 14.1916 4.19173L3.35824 15.0251C3.14157 15.2417 3.0249 15.5251 3.0249 15.8334C3.0249 16.1417 3.14157 16.4251 3.35824 16.6417C3.7999 17.0834 4.53324 17.0834 4.9749 16.6417L15.8082 5.8084C16.0249 5.59173 16.1416 5.3084 16.1416 5.00006C16.1416 4.69173 16.0249 4.4084 15.8082 4.19173C15.5832 3.96673 15.2916 3.8584 14.9999 3.8584Z" fill="#1B5E37"/>
<path d="M15.0084 8.11706C14.8501 8.11706 14.6917 8.05872 14.5667 7.93372L12.0667 5.43372C11.8251 5.19206 11.8251 4.79206 12.0667 4.55039C12.3084 4.30872 12.7084 4.30872 12.9501 4.55039L15.4501 7.05039C15.6917 7.29206 15.6917 7.69206 15.4501 7.93372C15.3251 8.05872 15.1667 8.11706 15.0084 8.11706Z" fill="#1B5E37"/>
<path d="M8.33338 4.58354C8.29171 4.58354 8.25838 4.57521 8.21671 4.56687L7.08338 4.23354L5.95004 4.56687C5.80004 4.60854 5.64171 4.56687 5.54171 4.45854C5.43338 4.35021 5.39171 4.20021 5.43338 4.05021L5.76671 2.91687L5.43338 1.78354C5.39171 1.63354 5.43338 1.47521 5.54171 1.37521C5.65004 1.26687 5.80838 1.22521 5.95004 1.26687L7.08338 1.60021L8.21671 1.26687C8.36671 1.22521 8.51671 1.26687 8.62504 1.37521C8.73338 1.48354 8.77504 1.64187 8.73338 1.78354L8.40004 2.91687L8.73338 4.05021C8.77504 4.20021 8.73338 4.35854 8.62504 4.45854C8.55004 4.54187 8.44171 4.58354 8.33338 4.58354ZM7.08338 3.38354C7.12504 3.38354 7.15838 3.39187 7.20004 3.40021L7.71671 3.55021L7.56671 3.03354C7.54171 2.95854 7.54171 2.87521 7.56671 2.80021L7.71671 2.28354L7.20004 2.43354C7.12504 2.45854 7.04171 2.45854 6.96671 2.43354L6.45004 2.28354L6.60004 2.80021C6.62504 2.87521 6.62504 2.95854 6.60004 3.03354L6.45004 3.55021L6.96671 3.40021C7.00838 3.39187 7.04171 3.38354 7.08338 3.38354Z" fill="#1B5E37"/>
<path d="M4.99988 9.58354C4.95821 9.58354 4.92488 9.57521 4.88321 9.56687L3.74988 9.23354L2.61655 9.56687C2.46655 9.60854 2.31655 9.56687 2.20821 9.45854C2.09988 9.35021 2.05821 9.19187 2.09988 9.05021L2.43321 7.91687L2.09988 6.78354C2.05821 6.63354 2.09988 6.47521 2.20821 6.37521C2.31655 6.27521 2.47488 6.22521 2.61655 6.26687L3.74988 6.60021L4.88321 6.26687C5.02488 6.22521 5.18321 6.26687 5.29155 6.37521C5.39988 6.48354 5.44155 6.64187 5.39988 6.78354L5.06655 7.91687L5.39988 9.05021C5.44155 9.20021 5.39988 9.35854 5.29155 9.45854C5.21655 9.54187 5.10821 9.58354 4.99988 9.58354ZM3.74988 8.38354C3.79155 8.38354 3.82488 8.39187 3.86655 8.40021L4.38321 8.55021L4.23321 8.03354C4.20821 7.95854 4.20821 7.87521 4.23321 7.80021L4.38321 7.28354L3.86655 7.43354C3.79155 7.45854 3.70821 7.45854 3.63321 7.43354L3.11655 7.28354L3.26655 7.80021C3.29155 7.87521 3.29155 7.95854 3.26655 8.03354L3.11655 8.55021L3.63321 8.40021C3.67488 8.39187 3.70821 8.38354 3.74988 8.38354Z" fill="#1B5E37"/>
<path d="M17.4999 13.7496C17.4582 13.7496 17.4249 13.7412 17.3832 13.7329L16.2499 13.3996L15.1165 13.7329C14.9665 13.7746 14.8165 13.7329 14.7082 13.6246C14.5999 13.5162 14.5582 13.3579 14.5999 13.2162L14.9332 12.0829L14.5999 10.9496C14.5582 10.7996 14.5999 10.6412 14.7082 10.5412C14.8165 10.4412 14.9749 10.3912 15.1165 10.4329L16.2499 10.7662L17.3832 10.4329C17.5249 10.3912 17.6832 10.4329 17.7915 10.5412C17.8999 10.6496 17.9415 10.8079 17.8999 10.9496L17.5665 12.0829L17.8999 13.2162C17.9415 13.3662 17.8999 13.5246 17.7915 13.6246C17.7165 13.7079 17.6082 13.7496 17.4999 13.7496ZM16.2499 12.5496C16.2915 12.5496 16.3249 12.5579 16.3665 12.5662L16.8832 12.7162L16.7332 12.1996C16.7082 12.1246 16.7082 12.0412 16.7332 11.9662L16.8832 11.4496L16.3665 11.5996C16.2915 11.6246 16.2082 11.6246 16.1332 11.5996L15.6165 11.4496L15.7665 11.9662C15.7915 12.0412 15.7915 12.1246 15.7665 12.1996L15.6165 12.7162L16.1332 12.5662C16.1749 12.5579 16.2082 12.5496 16.2499 12.5496Z" fill="#1B5E37"/>
</svg>
