<svg width="20" height="20" viewBox="0 0 20 20" fill="none" xmlns="http://www.w3.org/2000/svg">
<path d="M7.23511 2.79552C8.22595 2.40153 11.7743 2.40146 12.7644 2.79552C13.3048 3.01061 13.6694 3.41734 14.0046 4.02599L14.3816 4.74864C14.3901 4.76272 14.398 4.77505 14.405 4.78575L14.4373 4.8297C14.6089 5.01671 14.896 5.13039 15.0857 5.13048C16.879 5.13048 18.3337 6.58379 18.3337 8.37657V13.2057C18.3337 15.4924 16.4788 17.3471 14.1921 17.3473H5.80835C3.52097 17.3472 1.66675 15.4928 1.66675 13.2057V8.37657C1.66682 6.58394 3.12071 5.13071 4.91382 5.13048C5.1028 5.13048 5.39126 5.01662 5.56323 4.8297C5.56662 4.82597 5.57066 4.82026 5.57593 4.81309L5.6189 4.74767L5.99487 4.02599C6.32982 3.41724 6.69442 3.01073 7.23511 2.79552ZM12.2029 3.92345C11.3453 3.68104 8.36207 3.69221 7.69702 3.95665C7.48624 4.04056 7.29855 4.2506 7.09058 4.62852L6.76929 5.24864L6.69019 5.39122C6.6243 5.5008 6.5584 5.59341 6.48315 5.6754C6.0611 6.13415 5.43653 6.38048 4.91382 6.38048L4.7771 6.38438C3.73803 6.45484 2.91682 7.32027 2.91675 8.37657V13.2057C2.91675 14.8025 4.21137 16.0972 5.80835 16.0973H14.1921C15.7884 16.0971 17.0837 14.802 17.0837 13.2057V8.37657C17.0837 7.27421 16.1887 6.38048 15.0857 6.38048L14.9412 6.37364C14.4508 6.33329 13.8996 6.09282 13.5164 5.6754C13.4422 5.5946 13.3767 5.50262 13.3113 5.39415C13.3019 5.37858 13.2895 5.35784 13.2761 5.3336L13.1794 5.15196L12.9099 4.62852C12.7017 4.25058 12.5133 4.04065 12.3025 3.95665L12.2029 3.92345Z" fill="#1B5E37"/>
<path d="M14.5869 7.08301C15.0472 7.08301 15.4203 7.4561 15.4203 7.91634C15.4203 8.3437 15.0986 8.69593 14.6841 8.74407L14.5869 8.74967C14.1192 8.74967 13.7461 8.37658 13.7461 7.91634C13.7461 7.48898 14.0678 7.13675 14.4822 7.08861L14.5869 7.08301Z" fill="#1B5E37"/>
<path d="M10 7.66602C11.8084 7.66615 13.2734 9.132 13.2734 10.9404C13.2733 12.7487 11.8083 14.2137 10 14.2139C8.19157 14.2139 6.72572 12.7488 6.72559 10.9404C6.72559 9.13192 8.19149 7.66602 10 7.66602ZM10 8.91602C8.88184 8.91602 7.97559 9.82227 7.97559 10.9404C7.97572 12.0585 8.88193 12.9639 10 12.9639C11.118 12.9637 12.0233 12.0584 12.0234 10.9404C12.0234 9.82236 11.118 8.91615 10 8.91602Z" fill="#1B5E37"/>
</svg>
