<svg width="370" height="156" viewBox="0 0 370 156" fill="none" xmlns="http://www.w3.org/2000/svg">
<path d="M305.465 16.99C305.467 17.5832 305.267 18.1634 304.891 18.6573C304.515 19.1513 303.979 19.5366 303.352 19.7647C302.725 19.9927 302.034 20.0532 301.368 19.9384C300.701 19.8236 300.088 19.5388 299.607 19.1199C299.126 18.701 298.798 18.167 298.665 17.5853C298.532 17.0037 298.6 16.4006 298.859 15.8525C299.119 15.3043 299.559 14.8358 300.124 14.5061C300.688 14.1764 301.352 14.0004 302.032 14.0004C302.941 14.0004 303.813 14.3151 304.456 14.8756C305.1 15.436 305.463 16.1964 305.465 16.99Z" fill="#60D290"/>
<path d="M221.832 21.2125C221.83 21.8034 221.627 22.3807 221.25 22.8713C220.873 23.362 220.337 23.7439 219.711 23.969C219.086 24.1941 218.397 24.2522 217.734 24.136C217.07 24.0198 216.461 23.7345 215.983 23.316C215.505 22.8976 215.179 22.3649 215.048 21.7852C214.916 21.2055 214.985 20.6048 215.244 20.0589C215.504 19.5131 215.943 19.0466 216.506 18.7185C217.068 18.3903 217.73 18.2152 218.407 18.2151C218.858 18.2151 219.304 18.2927 219.72 18.4435C220.136 18.5942 220.514 18.8151 220.832 19.0935C221.15 19.3719 221.402 19.7024 221.573 20.066C221.745 20.4296 221.833 20.8192 221.832 21.2125Z" fill="#60D290"/>
<path d="M178.082 59.754C178.083 60.3472 177.884 60.9274 177.507 61.4214C177.131 61.9153 176.596 62.3007 175.968 62.5287C175.341 62.7567 174.651 62.8172 173.984 62.7024C173.318 62.5876 172.705 62.3028 172.224 61.8839C171.743 61.465 171.415 60.931 171.282 60.3493C171.149 59.7677 171.216 59.1646 171.476 58.6165C171.735 58.0684 172.175 57.5998 172.74 57.2701C173.305 56.9404 173.969 56.7644 174.648 56.7644C175.099 56.7634 175.545 56.84 175.962 56.9898C176.378 57.1396 176.757 57.3596 177.076 57.6373C177.395 57.915 177.648 58.245 177.82 58.6082C177.993 58.9714 178.082 59.3608 178.082 59.754Z" fill="#60D290"/>
<path d="M6.057 153.01C6.057 153.602 5.85616 154.18 5.47988 154.671C5.1036 155.163 4.56877 155.546 3.94304 155.772C3.31731 155.999 2.62877 156.058 1.96449 155.943C1.30022 155.827 0.690042 155.542 0.211126 155.124C-0.267789 154.706 -0.593937 154.174 -0.726069 153.594C-0.858202 153.014 -0.790386 152.413 -0.531199 151.866C-0.272012 151.32 0.166906 150.853 0.730051 150.525C1.2932 150.196 1.95528 150.021 2.63256 150.021C3.54006 150.023 4.40973 150.338 5.05143 150.899C5.69313 151.459 6.05467 152.218 6.057 153.01Z" fill="#60D290"/>
<path d="M66.5229 2.98963C66.5229 3.58092 66.322 4.15893 65.9458 4.65058C65.5695 5.14222 65.0347 5.5254 64.4089 5.75168C63.7832 5.97796 63.0946 6.03717 62.4304 5.92181C61.7661 5.80645 61.1559 5.52172 60.677 5.10361C60.1981 4.68551 59.8719 4.15281 59.7398 3.57288C59.6077 2.99294 59.6755 2.39183 59.9347 1.84555C60.1939 1.29926 60.6328 0.832349 61.1959 0.503845C61.7591 0.17534 62.4212 0 63.0984 0C64.0059 0.00203409 64.8756 0.317666 65.5173 0.87789C66.159 1.43811 66.5205 2.19736 66.5229 2.98963Z" fill="#60D290"/>
<path d="M370 152.232C370.002 152.826 369.802 153.406 369.425 153.9C369.048 154.394 368.512 154.78 367.885 155.008C367.257 155.235 366.566 155.295 365.899 155.18C365.232 155.065 364.62 154.779 364.139 154.359C363.658 153.94 363.331 153.405 363.199 152.823C363.067 152.241 363.136 151.637 363.396 151.089C363.657 150.541 364.099 150.073 364.665 149.744C365.231 149.416 365.896 149.241 366.576 149.243C367.483 149.245 368.353 149.56 368.994 150.12C369.636 150.681 369.998 151.44 370 152.232Z" fill="#60D290"/>
<path d="M266.658 80.2576C264.877 80.2591 263.136 79.7995 261.654 78.9368C260.173 78.0741 259.017 76.8472 258.335 75.4112C257.652 73.9753 257.472 72.3948 257.819 70.8697C258.165 69.3447 259.022 67.9435 260.28 66.8436C261.539 65.7437 263.143 64.9944 264.89 64.6905C266.636 64.3866 268.447 64.5418 270.092 65.1365C271.738 65.7311 273.144 66.7384 274.134 68.0311C275.123 69.3237 275.652 70.8435 275.652 72.3983C275.647 74.4801 274.698 76.4756 273.013 77.9484C271.327 79.4213 269.043 80.2515 266.658 80.2576ZM266.658 65.7872C265.16 65.7872 263.696 66.1749 262.451 66.9014C261.206 67.6278 260.235 68.6603 259.662 69.8683C259.089 71.0763 258.939 72.4056 259.231 73.688C259.523 74.9705 260.244 76.1484 261.303 77.073C262.362 77.9976 263.712 78.6272 265.181 78.8823C266.65 79.1374 268.172 79.0065 269.556 78.5061C270.94 78.0057 272.122 77.1584 272.954 76.0712C273.787 74.984 274.231 73.7058 274.231 72.3983C274.232 71.5291 274.037 70.6682 273.657 69.8648C273.277 69.0614 272.72 68.3312 272.016 67.7158C271.313 67.1005 270.478 66.6121 269.559 66.2785C268.639 65.945 267.654 65.7728 266.658 65.7718V65.7872Z" fill="#60D290"/>
<path d="M0.00237942 39.3198C-1.77812 39.3198 -3.51864 38.8588 -4.99907 37.9952C-6.47951 37.1316 -7.63336 35.9042 -8.31473 34.4681C-8.9961 33.032 -9.17438 31.4517 -8.82702 29.9272C-8.47966 28.4026 -7.62227 27.0022 -6.36326 25.9031C-5.10426 24.8039 -3.50019 24.0554 -1.7539 23.7521C-0.00760746 23.4489 1.80247 23.6045 3.44744 24.1994C5.09241 24.7942 6.49839 25.8016 7.48758 27.094C8.47678 28.3865 9.00476 29.906 9.00476 31.4604C9.00242 33.5442 8.05321 35.5421 6.36544 37.0156C4.67767 38.489 2.38924 39.3177 0.00237942 39.3198ZM0.00237942 24.8494C-1.49534 24.8494 -2.95942 25.2371 -4.20472 25.9635C-5.45003 26.69 -6.42063 27.7225 -6.99378 28.9305C-7.56693 30.1385 -7.71689 31.4678 -7.4247 32.7502C-7.13251 34.0326 -6.41129 35.2106 -5.35225 36.1352C-4.2932 37.0598 -2.9439 37.6894 -1.47496 37.9445C-0.00602055 38.1996 1.51657 38.0687 2.90028 37.5683C4.28399 37.0679 5.46667 36.2205 6.29875 35.1334C7.13084 34.0462 7.57497 32.768 7.57497 31.4604C7.57263 29.7077 6.77406 28.0273 5.35443 26.7879C3.9348 25.5486 2.01004 24.8514 0.00237942 24.8494Z" fill="#60D290"/>
<path d="M360.23 58.7138C358.449 58.7153 356.707 58.2557 355.226 57.393C353.744 56.5304 352.589 55.3034 351.906 53.8675C351.224 52.4315 351.044 50.851 351.39 49.3259C351.737 47.8009 352.593 46.3997 353.852 45.2998C355.111 44.1999 356.715 43.4506 358.461 43.1467C360.208 42.8429 362.018 42.998 363.664 43.5927C365.309 44.1873 366.716 45.1946 367.705 46.4873C368.695 47.7799 369.223 49.2997 369.223 50.8545C369.221 52.9369 368.273 54.9336 366.587 56.4069C364.901 57.8801 362.615 58.7097 360.23 58.7138ZM360.23 44.2434C358.729 44.2419 357.262 44.629 356.014 45.3557C354.766 46.0823 353.793 47.116 353.218 48.3257C352.643 49.5355 352.492 50.8669 352.785 52.1516C353.077 53.4362 353.799 54.6163 354.86 55.5424C355.921 56.4685 357.273 57.099 358.744 57.3542C360.215 57.6093 361.741 57.4776 363.126 56.9757C364.512 56.4738 365.696 55.6242 366.528 54.5346C367.361 53.4449 367.804 52.1642 367.802 50.8545C367.8 49.1017 367.001 47.4214 365.582 46.182C364.162 44.9426 362.237 44.2454 360.23 44.2434Z" fill="#60D290"/>
<path d="M135.356 32.701C133.574 32.7025 131.833 32.2426 130.351 31.3796C128.869 30.5166 127.714 29.2892 127.032 27.8528C126.349 26.4164 126.17 24.8355 126.517 23.3102C126.864 21.785 127.722 20.3839 128.981 19.2842C130.241 18.1846 131.846 17.436 133.593 17.1329C135.34 16.8299 137.151 16.9862 138.796 17.582C140.441 18.1778 141.847 19.1864 142.836 20.48C143.824 21.7737 144.351 23.2943 144.349 24.8493C144.347 26.9311 143.399 28.927 141.713 30.399C140.026 31.871 137.74 32.6989 135.356 32.701ZM135.356 18.2383C133.858 18.2383 132.394 18.626 131.149 19.3524C129.903 20.0789 128.933 21.1114 128.36 22.3194C127.786 23.5274 127.636 24.8567 127.929 26.1391C128.221 27.4215 128.942 28.5995 130.001 29.5241C131.06 30.4487 132.409 31.0783 133.878 31.3334C135.347 31.5885 136.87 31.4576 138.254 30.9572C139.637 30.4568 140.82 29.6094 141.652 28.5223C142.484 27.4351 142.928 26.1569 142.928 24.8493C142.926 23.0966 142.127 21.4162 140.708 20.1768C139.288 18.9375 137.363 18.2403 135.356 18.2383Z" fill="#60D290"/>
</svg>
