<svg width="375" height="432" viewBox="0 0 375 432" fill="none" xmlns="http://www.w3.org/2000/svg">
<path opacity="0.7" d="M183.863 -111.496C202.387 -111.393 218.016 -109.37 229.012 -107.374C234.509 -106.376 238.849 -105.385 241.812 -104.644C243.293 -104.273 244.43 -103.965 245.195 -103.75C245.578 -103.642 245.869 -103.558 246.062 -103.501C246.159 -103.472 246.232 -103.45 246.28 -103.436C246.304 -103.428 246.323 -103.423 246.335 -103.419C246.341 -103.417 246.345 -103.416 246.348 -103.415C246.349 -103.415 246.35 -103.414 246.351 -103.414C246.351 -103.414 246.352 -103.414 246.5 -103.892L246.352 -103.414L246.362 -103.41L246.374 -103.407C246.375 -103.407 246.376 -103.407 246.377 -103.406C246.379 -103.406 246.383 -103.405 246.388 -103.403C246.398 -103.401 246.413 -103.397 246.434 -103.392C246.475 -103.381 246.537 -103.364 246.619 -103.342C246.784 -103.297 247.03 -103.227 247.354 -103.133C248.005 -102.944 248.972 -102.654 250.229 -102.247C252.746 -101.434 256.43 -100.157 261.093 -98.3066C270.417 -94.606 283.654 -88.6099 299.287 -79.4307C330.552 -61.0723 371.401 -29.9822 409.705 20.9365C447.985 71.824 466.069 132.859 464.394 189.12C462.718 245.384 441.286 296.832 400.587 328.612C359.787 360.472 332.126 372.883 301.702 378.302C286.475 381.014 270.543 381.977 251.898 382.736C233.26 383.496 211.915 384.053 185.9 385.958C133.804 389.774 96.3267 407.832 62.2783 420.014C28.2324 432.194 -2.4177 438.523 -41.0996 419.14C-118.557 380.325 -150.241 289.09 -115.448 196.414C-98.0101 149.965 -79.3324 97.8316 -53.4209 49.6172C-27.5116 1.40692 5.61233 -42.8477 51.915 -73.5449C98.2051 -104.234 146.814 -111.703 183.863 -111.496Z" fill="#B0E8C7" stroke="black"/>
</svg>
