<svg width="16" height="16" viewBox="0 0 16 16" fill="none" xmlns="http://www.w3.org/2000/svg">
<path d="M13.18 7.50016H10.4867C9.14667 7.50016 8.5 6.90683 8.5 5.68016V2.6535C8.5 1.42683 9.15333 0.833496 10.4867 0.833496H13.18C14.52 0.833496 15.1667 1.42683 15.1667 2.6535V5.6735C15.1667 6.90683 14.5133 7.50016 13.18 7.50016ZM10.4867 1.8335C9.59333 1.8335 9.5 2.08683 9.5 2.6535V5.6735C9.5 6.24683 9.59333 6.4935 10.4867 6.4935H13.18C14.0733 6.4935 14.1667 6.24016 14.1667 5.6735V2.6535C14.1667 2.08016 14.0733 1.8335 13.18 1.8335H10.4867Z" fill="#4E5556"/>
<path d="M13.18 15.1667H10.4867C9.14667 15.1667 8.5 14.5133 8.5 13.18V10.4867C8.5 9.14667 9.15333 8.5 10.4867 8.5H13.18C14.52 8.5 15.1667 9.15333 15.1667 10.4867V13.18C15.1667 14.5133 14.5133 15.1667 13.18 15.1667ZM10.4867 9.5C9.7 9.5 9.5 9.7 9.5 10.4867V13.18C9.5 13.9667 9.7 14.1667 10.4867 14.1667H13.18C13.9667 14.1667 14.1667 13.9667 14.1667 13.18V10.4867C14.1667 9.7 13.9667 9.5 13.18 9.5H10.4867Z" fill="#4E5556"/>
<path d="M5.51325 7.50016H2.81992C1.47992 7.50016 0.833252 6.90683 0.833252 5.68016V2.6535C0.833252 1.42683 1.48659 0.833496 2.81992 0.833496H5.51325C6.85325 0.833496 7.49992 1.42683 7.49992 2.6535V5.6735C7.49992 6.90683 6.84659 7.50016 5.51325 7.50016ZM2.81992 1.8335C1.92659 1.8335 1.83325 2.08683 1.83325 2.6535V5.6735C1.83325 6.24683 1.92659 6.4935 2.81992 6.4935H5.51325C6.40659 6.4935 6.49992 6.24016 6.49992 5.6735V2.6535C6.49992 2.08016 6.40659 1.8335 5.51325 1.8335H2.81992Z" fill="#4E5556"/>
<path d="M5.51325 15.1667H2.81992C1.47992 15.1667 0.833252 14.5133 0.833252 13.18V10.4867C0.833252 9.14667 1.48659 8.5 2.81992 8.5H5.51325C6.85325 8.5 7.49992 9.15333 7.49992 10.4867V13.18C7.49992 14.5133 6.84659 15.1667 5.51325 15.1667ZM2.81992 9.5C2.03325 9.5 1.83325 9.7 1.83325 10.4867V13.18C1.83325 13.9667 2.03325 14.1667 2.81992 14.1667H5.51325C6.29992 14.1667 6.49992 13.9667 6.49992 13.18V10.4867C6.49992 9.7 6.29992 9.5 5.51325 9.5H2.81992Z" fill="#4E5556"/>
</svg>
